
        <svg xmlns="http://www.w3.org/2000/svg" xmlns:xlink="http://www.w3.org/1999/xlink" version="1.1" width="3162.1621621621625" height="841.8355089101958" viewBox="0 0 3162.1621621621625 841.8355089101958">
			
			<g transform="scale(8.108108108108109) translate(10, 10)">
				<defs id="SvgjsDefs3461"><linearGradient id="SvgjsLinearGradient3468"><stop id="SvgjsStop3469" stop-color="#905e26" offset="0"/><stop id="SvgjsStop3470" stop-color="#f5ec9b" offset="0.5"/><stop id="SvgjsStop3471" stop-color="#905e26" offset="1"/></linearGradient><linearGradient id="SvgjsLinearGradient3472"><stop id="SvgjsStop3473" stop-color="#905e26" offset="0"/><stop id="SvgjsStop3474" stop-color="#f5ec9b" offset="0.5"/><stop id="SvgjsStop3475" stop-color="#905e26" offset="1"/></linearGradient><linearGradient id="SvgjsLinearGradient3476"><stop id="SvgjsStop3477" stop-color="#905e26" offset="0"/><stop id="SvgjsStop3478" stop-color="#f5ec9b" offset="0.5"/><stop id="SvgjsStop3479" stop-color="#905e26" offset="1"/></linearGradient></defs><g id="SvgjsG3462" featureKey="phAakL-0" transform="matrix(1.284547977237769,0,0,1.284547977237769,-14.188703510328805,-22.32866217256507)" fill="#000"><title xmlns="http://www.w3.org/2000/svg">05_collections</title><path xmlns="http://www.w3.org/2000/svg" d="M85.82,74.51l-0.2.17C79,80.49,71.17,83,64.12,81.62c-6.36-1.26-10.91-5.46-15.3-9.52-4.76-4.4-9.25-8.55-15.87-9.26S19.1,65.18,13.39,71.29c2.22,3.09,12.78,15.79,30,5.3a1,1,0,0,1,1,1.71c-5.18,3.15-9.84,4.34-13.91,4.34-12.25,0-19.19-10.76-19.28-10.91a1,1,0,0,1,.1-1.2c6.23-7,14.17-10.51,21.79-9.69,7.28,0.78,12.23,5.36,17,9.78,4.38,4,8.52,7.88,14.33,9,6.44,1.28,13.65-1.08,19.78-6.48l0.24-.2a26.68,26.68,0,0,0,2.23-2c-3-7.08-11.17-8.72-12.8-9a36.92,36.92,0,0,1-9.55,4.13,1,1,0,0,1-.27,0,1,1,0,0,1-.27-2c10.19-2.9,16.5-8.43,18.78-16.42a24.11,24.11,0,0,0,.53-10.5c-13.83-1.42-19.66,6.85-20.52,8.2-0.77,5.4-3.22,10.78-7.32,16.08a1,1,0,0,1-1.58-1.22C57.67,55.26,60,50.14,60.69,45h0a24.07,24.07,0,0,0,0-6.45c-1.32-10-8.65-17-10.86-18.91C38.27,30.34,40.34,41.9,42.79,48.1a38.83,38.83,0,0,1,2.4,4.71,1,1,0,0,1-1.74,1,26.32,26.32,0,0,1-2.25-4.45c-3.6-6.1-8.47-9.9-14.52-11.31a22.17,22.17,0,0,0-9.43-.13c-2.89,8.75,3.16,16.64,3.22,16.72a1,1,0,0,1-1.58,1.23c-0.29-.37-7-9.14-3.35-19.15a1,1,0,0,1,.66-0.61,23.88,23.88,0,0,1,23.28,7.5c-1.38-7.14-.54-17,9.67-26a1,1,0,0,1,1.27,0C50.87,17.88,61,25.73,62.7,38.31A26.1,26.1,0,0,1,62.92,42c3.07-3.23,9.68-8,21.21-6.59a1,1,0,0,1,.84.74c0,0.18,3.59,14.77-8.74,24.3,3.52,0.9,10,3.45,12.58,10.28C89.13,71.52,88.62,72.16,85.82,74.51Z"/></g><g id="SvgjsG3463" featureKey="fNbRbf-0" transform="matrix(1.9236687217970427,0,0,1.9236687217970427,118.46106499963045,9.112960258640923)" fill="#000"><path d="M0.8 20 l0 -15.6 l7.76 0 c1.62 0 2.88 0.4 3.76 1.2 c0.86 0.8 1.3 1.86 1.3 3.2 c0 1.52 -0.64 2.64 -1.9 3.34 c1.26 0.72 1.9 1.94 1.9 3.46 c0 1.34 -0.44 2.4 -1.3 3.2 c-0.88 0.82 -2.14 1.2 -3.76 1.2 l-7.76 0 z M4.8 10.66 l3.3 0 c0.98 0 1.48 -0.44 1.48 -1.28 c0 -0.38 -0.1 -0.7 -0.32 -0.94 c-0.22 -0.22 -0.52 -0.32 -0.94 -0.32 l-3.52 0 l0 2.54 z M4.8 16.28 l3.52 0 c0.42 0 0.72 -0.1 0.94 -0.32 c0.22 -0.24 0.32 -0.54 0.32 -0.94 c0 -0.84 -0.5 -1.28 -1.48 -1.28 l-3.3 0 l0 2.54 z M15.22 8.42 l0 11.58 l3.18 0 l0.04 -6.04 c0.02 -1.48 1.22 -2.72 2.8 -2.72 l0.84 0 l0.02 -3.04 l-0.86 0 c-0.98 0 -1.94 0.2 -2.8 0.64 l0 -0.42 l-3.22 0 z M22.04 14.16 c0 3.14 2.66 5.84 6.04 5.84 c1.02 0 1.98 -0.22 2.86 -0.66 l0 0.66 l3.18 0 l-0.02 -11.56 l-3.24 0 l0 0.52 c-0.86 -0.42 -1.8 -0.62 -2.78 -0.62 c-3.38 0 -6.04 2.7 -6.04 5.82 z M30.08 16.14 c-0.54 0.52 -1.2 0.82 -2 0.82 c-1.58 0 -2.8 -1.32 -2.8 -2.8 c0 -1.46 1.22 -2.78 2.8 -2.78 c0.8 0 1.46 0.28 2 0.8 c0.34 0.34 0.78 1.06 0.78 1.48 l0 1.02 c0 0.42 -0.44 1.1 -0.78 1.46 z M35.72 8.44 l4.7 11.54 l3.12 0 l4.72 -11.54 l-3.58 0 l-2.7 7.16 l-2.68 -7.16 l-3.58 0 z M47.98 14.18 c0 3.1 2.62 5.78 5.98 5.78 c3.34 0 5.96 -2.68 5.96 -5.78 c0 -3.08 -2.62 -5.76 -5.96 -5.76 c-3.36 0 -5.98 2.68 -5.98 5.76 z M56.72 14.18 c0 1.5 -1.16 2.76 -2.76 2.76 s-2.78 -1.28 -2.78 -2.76 c0 -1.46 1.18 -2.74 2.78 -2.74 s2.76 1.26 2.76 2.74 z M76.8 20.3 c-2.26 0 -4.2 -0.8 -5.82 -2.38 c-1.64 -1.58 -2.46 -3.5 -2.46 -5.72 s0.82 -4.14 2.46 -5.72 c1.62 -1.58 3.56 -2.38 5.82 -2.38 c2.28 0 4.24 0.8 5.86 2.38 c1.22 1.18 1.98 2.56 2.26 4.1 l-4.18 0 c-0.2 -0.52 -0.52 -1 -0.92 -1.4 c-0.82 -0.82 -1.82 -1.22 -3.02 -1.22 c-1.18 0 -2.18 0.42 -3 1.24 s-1.24 1.82 -1.24 3 s0.42 2.18 1.24 3 s1.82 1.24 3 1.24 c1.2 0 2.2 -0.42 3.02 -1.24 c0.56 -0.56 0.92 -1.18 1.1 -1.92 l4.08 0 c-0.22 1.78 -0.98 3.32 -2.34 4.64 c-1.62 1.58 -3.58 2.38 -5.86 2.38 z M86.6 20.02 l3.24 0 l-0.04 -15.64 l-3.18 0 l0 0.2 z M91.44 14.18 c0 -3.08 2.62 -5.76 5.98 -5.76 c3.34 0 5.96 2.68 5.96 5.76 c0 0.42 -0.04 0.82 -0.12 1.2 l-8.34 0.02 c0.44 0.9 1.36 1.54 2.5 1.54 c0.78 0 1.48 -0.32 1.96 -0.8 l3.64 0 c-0.82 2.18 -3 3.82 -5.6 3.82 c-3.36 0 -5.98 -2.6 -5.98 -5.7 l0 -0.08 z M95.02 12.8 l-0.1 0.28 l5.06 0 l-0.16 -0.28 c-0.48 -0.8 -1.34 -1.36 -2.4 -1.36 s-1.94 0.56 -2.4 1.36 z M104.98 14.16 c0 3.14 2.66 5.84 6.04 5.84 c1.02 0 1.98 -0.22 2.86 -0.66 l0 0.66 l3.18 0 l-0.02 -11.56 l-3.24 0 l0 0.52 c-0.86 -0.42 -1.8 -0.62 -2.78 -0.62 c-3.38 0 -6.04 2.7 -6.04 5.82 z M113.02000000000001 16.14 c-0.54 0.52 -1.2 0.82 -2 0.82 c-1.58 0 -2.8 -1.32 -2.8 -2.8 c0 -1.46 1.22 -2.78 2.8 -2.78 c0.8 0 1.46 0.28 2 0.8 c0.34 0.34 0.78 1.06 0.78 1.48 l0 1.02 c0 0.42 -0.44 1.1 -0.78 1.46 z M118.68 8.52 c0 3.76 -0.02 7.52 -0.02 11.3 l0 0.18 l3.24 0 l0 -5.92 c0 -1.44 1.26 -2.7 2.8 -2.7 c1.48 0 2.64 1.14 2.8 2.5 c0.02 0.2 0 0.42 0 0.62 l0.02 1.46 l0 4 l3.24 0.04 l0 -6.02 c0 -1.46 -0.74 -2.9 -1.8 -3.92 c-1.16 -1.12 -2.58 -1.72 -4.26 -1.72 c-1 0 -1.96 0.22 -2.84 0.66 l0 -0.6 l-3.18 0 l0 0.12 z"/></g><g id="SvgjsG3464" featureKey="gqtJpI-0" transform="matrix(0.653378368745432,0,0,0.653378368745432,144.390901086096,53.8693357042426)" fill="#000"><path d="M8.1524 12.932400000000001 c1.5932 0.52542 2.5254 1.8646 2.5254 3.4068 c0 2.1695 -1.8983 3.6608 -4.1356 3.6608 l-5.3898 0 c-0.15238 0 -0.22017 -0.08458 -0.22017 -0.22017 l0 -13.119 c0 -0.15254 0.067797 -0.22034 0.22017 -0.22034 l5.1017 0 c2.2034 0 3.7288 1.6949 3.7288 3.5085 c0 1.4237 -0.77966 2.4915 -1.8305 2.9831 z M5.9659 12.5258 c3.4746 0 3.5763 -4.7966 0.067797 -4.7966 l-3.7627 0 l0 4.7966 l3.6949 0 z M6.2881 18.7122 c4.0508 0 4.0678 -4.9322 -0.033898 -4.9322 l-3.9831 0 l0 4.9322 l4.0169 0 z M34.752508474576274 6.441000000000001 c0.08458 0 0.15188 0.10169 0.084083 0.20339 l-5.4064 7.7458 l0 5.3729 c0 0.15254 -0.067797 0.23712 -0.20339 0.23712 l-0.67797 0 c-0.28814 0 -0.44068 -0.18644 -0.44068 -0.47441 l0 -5.1356 l-5.4068 -7.7458 c-0.050847 -0.10169 0 -0.20339 0.10186 -0.20339 l1.1864 0 c0.10169 0 0.15254 0.067797 0.20339 0.16949 l4.5763 6.4746 l4.5764 -6.4746 c0.067797 -0.10169 0.10169 -0.16949 0.20339 -0.16949 l1.2034 0 z M73.9525254237288 17.729 c0.11864 0.08458 0.084746 0.22017 -0.067797 0.37271 c-1.2544 1.2542 -2.8814 2.0168 -4.8983 2.0168 c-3.8136 0 -6.9322 -3.0168 -6.9322 -6.8812 c0 -3.8475 3.1186 -6.9153 6.9322 -6.9153 c1.9322 0 3.661 0.74576 4.9322 2.0169 c0.15254 0.15254 0.16949 0.27119 0.067797 0.35593 l-0.71186 0.59322 c-0.11864 0.10169 -0.22034 0.10169 -0.33898 -0.016949 c-0.71186 -0.74559 -2.1186 -1.6608 -3.8475 -1.6608 c-3.678 0 -5.7119 2.9831 -5.7119 5.6271 c0 2.678 2.0339 5.5932 5.7119 5.5932 c1.7288 0 3.0508 -0.88136 3.7966 -1.6271 c0.13559 -0.13559 0.23729 -0.16949 0.35593 -0.067797 z M97.34908474576271 6.441000000000001 l-0.89797 0 c-0.16949 0 -0.23729 0.050847 -0.23729 0.22051 l0 8.1524 c0 2.8305 -2.1186 4.0169 -4.0341 4.0169 c-1.8644 0 -3.9492 -1.1864 -3.9492 -4.0169 l0 -8.1524 c0 -0.15254 -0.067797 -0.22034 -0.22034 -0.22034 l-0.88136 0 c-0.16949 0 -0.23729 0.067797 -0.23729 0.22034 l0 8.3388 c0.016784 2.7292 1.9659 5.1186 5.288 5.1186 c3.339 0 5.3559 -2.3895 5.3729 -5.1186 l0 -8.3388 c0 -0.16966 -0.067797 -0.22051 -0.20339 -0.22051 z M126.2541694915254 6.441000000000001 c0.11864 0 0.20339 0.10186 0.20339 0.23746 l0 13.085 c0 0.15254 -0.084746 0.23712 -0.22034 0.23712 l-0.88136 0 c-0.16949 0 -0.23729 -0.08458 -0.23729 -0.23712 l0 -10.61 l-6.1697 10.407 c-0.067797 0.11864 -0.13559 0.16949 -0.25424 0.16949 l-0.067797 0 c-0.10169 0 -0.18644 -0.050847 -0.25424 -0.16949 l-6.1525 -10.407 l0 10.61 c0 0.15254 -0.084746 0.23712 -0.22034 0.23712 l-0.88136 0 c-0.15254 0 -0.23729 -0.08458 -0.23729 -0.23712 l0 -13.102 c0 -0.11881 0.067797 -0.22051 0.20339 -0.22051 l0.81356 0 c0.11864 0 0.18644 0.050847 0.25424 0.15271 l6.5086 10.983 l6.5254 -10.983 c0.050847 -0.10186 0.11864 -0.15271 0.27119 -0.15271 l0.79661 0 z M146.7524 12.932400000000001 c1.5932 0.52542 2.5254 1.8646 2.5254 3.4068 c0 2.1695 -1.8983 3.6608 -4.1356 3.6608 l-5.3898 0 c-0.15238 0 -0.22017 -0.08458 -0.22017 -0.22017 l0 -13.119 c0 -0.15254 0.067797 -0.22034 0.22017 -0.22034 l5.1017 0 c2.2034 0 3.7288 1.6949 3.7288 3.5085 c0 1.4237 -0.77966 2.4915 -1.8305 2.9831 z M144.5659 12.5258 c3.4746 0 3.5763 -4.7966 0.067797 -4.7966 l-3.7627 0 l0 4.7966 l3.6949 0 z M144.8881 18.7122 c4.0508 0 4.0678 -4.9322 -0.033898 -4.9322 l-3.9831 0 l0 4.9322 l4.0169 0 z M175.09850847457628 19.77983 c0.067797 0.13559 0.034229 0.22017 -0.11831 0.22017 l-1.0339 0 c-0.11864 0 -0.18644 -0.050847 -0.23729 -0.15254 l-1.1864 -2.5254 l-8.1864 0 l-1.1864 2.5254 c-0.050847 0.10169 -0.11848 0.15254 -0.22034 0.15254 l-1.0678 0 c-0.11864 0 -0.18644 -0.08458 -0.11864 -0.22017 l6.3558 -13.271 c0.067797 -0.11864 0.11864 -0.15254 0.20322 -0.15254 l0.23745 0 c0.084746 0 0.15254 0.033898 0.20339 0.15254 z M164.91200847457625 16.1019 l7.0339 0 l-3.5254 -7.4576 z M198.49489830508475 17.729 c0.11864 0.08458 0.084746 0.22017 -0.067797 0.37271 c-1.2544 1.2542 -2.8814 2.0168 -4.8983 2.0168 c-3.8136 0 -6.9322 -3.0168 -6.9322 -6.8812 c0 -3.8475 3.1186 -6.9153 6.9322 -6.9153 c1.9322 0 3.661 0.74576 4.9322 2.0169 c0.15254 0.15254 0.16949 0.27119 0.067797 0.35593 l-0.71186 0.59322 c-0.11864 0.10169 -0.22034 0.10169 -0.33898 -0.016949 c-0.71186 -0.74559 -2.1186 -1.6608 -3.8475 -1.6608 c-3.678 0 -5.7119 2.9831 -5.7119 5.6271 c0 2.678 2.0339 5.5932 5.7119 5.5932 c1.7288 0 3.0508 -0.88136 3.7966 -1.6271 c0.13559 -0.13559 0.23729 -0.16949 0.35593 -0.067797 z M217.82377796610172 20.11864 c3.8305 0 6.9492 -3.0337 6.9492 -6.8981 c0 -3.8475 -3.1186 -6.8983 -6.9492 -6.8983 c-3.8475 0 -6.9661 3.0508 -6.9661 6.8983 c0 3.8644 3.1186 6.8981 6.9661 6.8981 z M217.82377796610172 18.8307 c-3.0847 0 -5.6441 -2.5085 -5.6441 -5.6102 s2.5593 -5.6102 5.6441 -5.6102 c3.0846 0 5.61 2.5085 5.61 5.6102 s-2.5254 5.6102 -5.61 5.6102 z M261.27792881355936 18.712 c0.13559 0 0.20339 0.084912 0.20339 0.23729 l0 0.83051 c0 0.15254 -0.067797 0.22017 -0.20339 0.22017 l-7.9492 0 c-0.15254 0 -0.20339 -0.10153 -0.20339 -0.22017 l0 -13.119 c0 -0.15254 0.067797 -0.22034 0.22034 -0.22034 l0.89831 0 c0.13559 0 0.22034 0.067797 0.22034 0.22034 l0 12.051 l6.8136 0 z M282.5389457627119 18.712 c0.13559 0 0.20339 0.084912 0.20339 0.23729 l0 0.83051 c0 0.15254 -0.067797 0.22017 -0.20339 0.22017 l-7.9492 0 c-0.15254 0 -0.20339 -0.10153 -0.20339 -0.22017 l0 -13.119 c0 -0.15254 0.067797 -0.22034 0.22034 -0.22034 l0.89831 0 c0.13559 0 0.22034 0.067797 0.22034 0.22034 l0 12.051 l6.8136 0 z M306.9355762711864 17.729 c0.11864 0.08458 0.084746 0.22017 -0.067797 0.37271 c-1.2544 1.2542 -2.8814 2.0168 -4.8983 2.0168 c-3.8136 0 -6.9322 -3.0168 -6.9322 -6.8812 c0 -3.8475 3.1186 -6.9153 6.9322 -6.9153 c1.9322 0 3.661 0.74576 4.9322 2.0169 c0.15254 0.15254 0.16949 0.27119 0.067797 0.35593 l-0.71186 0.59322 c-0.11864 0.10169 -0.22034 0.10169 -0.33898 -0.016949 c-0.71186 -0.74559 -2.1186 -1.6608 -3.8475 -1.6608 c-3.678 0 -5.7119 2.9831 -5.7119 5.6271 c0 2.678 2.0339 5.5932 5.7119 5.5932 c1.7288 0 3.0508 -0.88136 3.7966 -1.6271 c0.13559 -0.13559 0.23729 -0.16949 0.35593 -0.067797 z"/></g>
			</g>
		</svg>
	